<?xml version="1.0" standalone="no"?><!DOCTYPE svg PUBLIC "-//W3C//DTD SVG 1.1//EN" "http://www.w3.org/Graphics/SVG/1.1/DTD/svg11.dtd"><svg t="1507385809220" class="icon" style="" viewBox="0 0 1024 1024" version="1.1" xmlns="http://www.w3.org/2000/svg" p-id="6798" xmlns:xlink="http://www.w3.org/1999/xlink" width="200" height="200"><defs><style type="text/css"></style></defs><path d="M528.2 937.4c-6 0-11.9-2-16.8-5.9L226.3 700.7H89.7C75 700.7 63 688.7 63 674V338c0-14.7 11.9-26.6 26.6-26.6h137L512 93.3c8.1-6 18.9-7.2 28-2.7 9.1 4.5 14.8 13.7 14.8 23.9v796.3c0 10.3-5.9 19.6-15.2 24-3.6 1.8-7.5 2.6-11.4 2.6z m-411.9-290h119.4c6.1 0 12 2.1 16.8 5.9l249.1 201.6V168.4L251.9 359.2c-4.7 3.5-10.3 5.5-16.2 5.5H116.3v282.7z m603.8 70.1C774.8 662.8 805 590 805 512.7s-30.2-150.2-84.9-204.9c-10.4-10.4-27.3-10.4-37.7 0-10.4 10.4-10.4 27.3 0 37.7 44.6 44.6 69.3 104 69.3 167.2s-24.6 122.5-69.3 167.2c-10.4 10.4-10.4 27.3 0 37.7 5.2 5.2 12 7.8 18.8 7.8 6.9-0.1 13.7-2.7 18.9-7.9z m109.1 109.1c173.1-173.1 173.1-454.8 0-627.9-10.4-10.4-27.3-10.4-37.7 0-10.4 10.4-10.4 27.3 0 37.7 152.4 152.4 152.4 400.2 0 552.6-10.4 10.4-10.4 27.3 0 37.7 5.2 5.2 12 7.8 18.8 7.8s13.7-2.7 18.9-7.9z" p-id="6799" fill="#1296db"></path></svg>