<?xml version="1.0" standalone="no"?><!DOCTYPE svg PUBLIC "-//W3C//DTD SVG 1.1//EN" "http://www.w3.org/Graphics/SVG/1.1/DTD/svg11.dtd"><svg t="1507377879275" class="icon" style="" viewBox="0 0 1024 1024" version="1.1" xmlns="http://www.w3.org/2000/svg" p-id="2420" xmlns:xlink="http://www.w3.org/1999/xlink" width="200" height="200"><defs><style type="text/css"></style></defs><path d="M511.9995 0c-282.769067 0-511.9955 229.226433-511.9955 511.9955s229.226433 511.9975 511.9955 511.9975c282.766067 0 511.9975-229.227433 511.9975-511.9975C1023.996 229.231433 794.764567 0 511.9995 0L511.9995 0zM511.9995 972.78635c-254.49426 0-460.79585-206.30559-460.79585-460.79585 0-254.48926 206.30159-460.79085 460.79585-460.79085 254.49026 0 460.79585 206.30159 460.79585 460.79085C972.79535 766.48076 766.48976 972.78635 511.9995 972.78635L511.9995 972.78635zM744.409911 475.710748c-79.676455-54.217629-224.156468-135.365075-306.423905-185.640731-33.726769-21.271855-62.089576-12.728913-64.813557 24.83783-1.970987 100.620312 0 294.759985 0 397.121285 1.715988 38.137739 35.335758 43.164705 64.515559 27.85481 82.175438-49.78766 223.407473-135.351075 305.997908-185.391733C743.14292 554.164212 806.393488 519.38045 744.409911 475.710748L744.409911 475.710748zM744.409911 475.710748" p-id="2421" fill="#1296db"></path></svg>